<svg width="1440" height="805" xmlns="http://www.w3.org/2000/svg" xmlns:xlink="http://www.w3.org/1999/xlink"><defs><path id="a" d="M0 0h1448v805H0z"/><linearGradient x1="100%" y1="173.238%" x2="4.828%" y2="173.238%" id="d"><stop stop-color="#149FF1" offset="0%"/><stop stop-color="#29B1FE" offset="100%"/></linearGradient><path id="c" d="M0 0h1920v805H0z"/><linearGradient x1="57.054%" y1="35.128%" x2="16.82%" y2="99.188%" id="e"><stop stop-color="#FFF" stop-opacity="0" offset="0%"/><stop offset="100%"/></linearGradient></defs><g transform="translate(-6)" fill="none" fill-rule="evenodd"><mask id="b" fill="#fff"><use xlink:href="#a"/></mask><use fill="#FFF" xlink:href="#a"/><g mask="url(#b)"><g transform="translate(-119)"><mask id="f" fill="#fff"><use xlink:href="#c"/></mask><use fill="url(#d)" xlink:href="#c"/><path d="M554.96-880.936l153.207-186.398L1727.612-1375.7s385.421 1404.713 0 1872.95c-978.648 512.675-1537.76-12.198-1537.76-12.198L418.774-679.349 554.96-880.936z" fill="url(#e)" style="mix-blend-mode:soft-light" mask="url(#f)" transform="rotate(55 1044.38 -326.856)"/><path d="M474.96 286.314L628.166 99.916 1647.612-208.45s385.421 1404.713 0 1872.95c-978.648 512.675-1537.76-12.198-1537.76-12.198L338.774 487.901 474.96 286.314z" fill="url(#e)" style="mix-blend-mode:soft-light" mask="url(#f)" transform="rotate(145 964.38 840.394)"/></g></g></g></svg>