<svg width="1440" height="789" xmlns="http://www.w3.org/2000/svg" xmlns:xlink="http://www.w3.org/1999/xlink"><defs><path id="a" d="M0 0h1450v789H0z"/><radialGradient cx="100.669%" cy="-6.487%" fx="100.669%" fy="-6.487%" r="223.355%" gradientTransform="scale(-.41094 -1) rotate(-33.521 -.506 5.738)" id="d"><stop stop-color="#00588E" offset="0%"/><stop stop-color="#005284" offset="13.301%"/><stop stop-color="#002B49" offset="100%"/></radialGradient><path id="c" d="M0 0h1920v789H0z"/><linearGradient x1="57.054%" y1="35.128%" x2="16.82%" y2="99.188%" id="e"><stop stop-color="#FFF" stop-opacity="0" offset="0%"/><stop offset="100%"/></linearGradient></defs><g transform="translate(-4)" fill="none" fill-rule="evenodd"><mask id="b" fill="#fff"><use xlink:href="#a"/></mask><use fill="#FFF" xlink:href="#a"/><g mask="url(#b)"><g transform="translate(-50)"><mask id="f" fill="#fff"><use xlink:href="#c"/></mask><use fill="url(#d)" xlink:href="#c"/><path d="M554.96-863.427l153.207-182.693 1019.445-302.236s385.421 1376.793 0 1835.724c-978.648 502.485-1537.76-11.955-1537.76-11.955l228.923-1141.26 136.184-197.58z" fill="url(#e)" style="mix-blend-mode:soft-light" mask="url(#f)" transform="rotate(55 1044.38 -320.36)"/><path d="M474.96 280.623L628.166 97.93l1019.445-302.236s385.421 1376.793 0 1835.724c-978.648 502.485-1537.76-11.955-1537.76-11.955l228.923-1141.26 136.184-197.58z" fill="url(#e)" style="mix-blend-mode:soft-light" mask="url(#f)" transform="rotate(145 964.38 823.69)"/></g></g></g></svg>
